<mxfile host="app.diagrams.net" modified="2023-12-08T20:23:01.449Z" agent="Mozilla/5.0 (Windows NT 10.0; Win64; x64) AppleWebKit/537.36 (KHTML, like Gecko) Chrome/119.0.0.0 Safari/537.36" etag="3FSSIZC8ntUjgoDWWiTe" version="22.1.7" type="github" pages="2">
  <diagram id="C5RBs43oDa-KdzZeNtuy" name="main">
    <mxGraphModel dx="905" dy="1078" grid="1" gridSize="10" guides="1" tooltips="1" connect="1" arrows="1" fold="1" page="1" pageScale="1" pageWidth="827" pageHeight="1169" math="0" shadow="0">
      <root>
        <mxCell id="WIyWlLk6GJQsqaUBKTNV-0" />
        <mxCell id="WIyWlLk6GJQsqaUBKTNV-1" parent="WIyWlLk6GJQsqaUBKTNV-0" />
        <mxCell id="aVI8cT9DaWJwzPJOxZiF-2" value="" style="edgeStyle=orthogonalEdgeStyle;rounded=0;orthogonalLoop=1;jettySize=auto;html=1;" edge="1" parent="WIyWlLk6GJQsqaUBKTNV-1" source="aVI8cT9DaWJwzPJOxZiF-0" target="aVI8cT9DaWJwzPJOxZiF-1">
          <mxGeometry relative="1" as="geometry" />
        </mxCell>
        <mxCell id="aVI8cT9DaWJwzPJOxZiF-0" value="main" style="ellipse;whiteSpace=wrap;html=1;" vertex="1" parent="WIyWlLk6GJQsqaUBKTNV-1">
          <mxGeometry x="410" y="270" width="90" height="40" as="geometry" />
        </mxCell>
        <mxCell id="aVI8cT9DaWJwzPJOxZiF-5" value="" style="edgeStyle=orthogonalEdgeStyle;rounded=0;orthogonalLoop=1;jettySize=auto;html=1;" edge="1" parent="WIyWlLk6GJQsqaUBKTNV-1" source="aVI8cT9DaWJwzPJOxZiF-1" target="aVI8cT9DaWJwzPJOxZiF-4">
          <mxGeometry relative="1" as="geometry" />
        </mxCell>
        <mxCell id="aVI8cT9DaWJwzPJOxZiF-1" value="char* line, *result" style="rounded=0;whiteSpace=wrap;html=1;" vertex="1" parent="WIyWlLk6GJQsqaUBKTNV-1">
          <mxGeometry x="395" y="340" width="120" height="60" as="geometry" />
        </mxCell>
        <mxCell id="aVI8cT9DaWJwzPJOxZiF-7" style="edgeStyle=orthogonalEdgeStyle;rounded=0;orthogonalLoop=1;jettySize=auto;html=1;exitX=1;exitY=0.5;exitDx=0;exitDy=0;entryX=0.5;entryY=0;entryDx=0;entryDy=0;" edge="1" parent="WIyWlLk6GJQsqaUBKTNV-1" source="aVI8cT9DaWJwzPJOxZiF-4" target="aVI8cT9DaWJwzPJOxZiF-6">
          <mxGeometry relative="1" as="geometry" />
        </mxCell>
        <mxCell id="aVI8cT9DaWJwzPJOxZiF-27" style="edgeStyle=orthogonalEdgeStyle;rounded=0;orthogonalLoop=1;jettySize=auto;html=1;exitX=0;exitY=0.5;exitDx=0;exitDy=0;entryX=0.5;entryY=0;entryDx=0;entryDy=0;" edge="1" parent="WIyWlLk6GJQsqaUBKTNV-1" source="aVI8cT9DaWJwzPJOxZiF-4" target="aVI8cT9DaWJwzPJOxZiF-26">
          <mxGeometry relative="1" as="geometry" />
        </mxCell>
        <mxCell id="aVI8cT9DaWJwzPJOxZiF-4" value="(line=readline(PROMPT))" style="rhombus;whiteSpace=wrap;html=1;" vertex="1" parent="WIyWlLk6GJQsqaUBKTNV-1">
          <mxGeometry x="367.5" y="430" width="175" height="80" as="geometry" />
        </mxCell>
        <mxCell id="aVI8cT9DaWJwzPJOxZiF-9" value="" style="edgeStyle=orthogonalEdgeStyle;rounded=0;orthogonalLoop=1;jettySize=auto;html=1;" edge="1" parent="WIyWlLk6GJQsqaUBKTNV-1" source="aVI8cT9DaWJwzPJOxZiF-6" target="aVI8cT9DaWJwzPJOxZiF-8">
          <mxGeometry relative="1" as="geometry" />
        </mxCell>
        <mxCell id="aVI8cT9DaWJwzPJOxZiF-6" value="start=clock()" style="shape=process;whiteSpace=wrap;html=1;backgroundOutline=1;" vertex="1" parent="WIyWlLk6GJQsqaUBKTNV-1">
          <mxGeometry x="395" y="555" width="120" height="60" as="geometry" />
        </mxCell>
        <mxCell id="aVI8cT9DaWJwzPJOxZiF-11" value="" style="edgeStyle=orthogonalEdgeStyle;rounded=0;orthogonalLoop=1;jettySize=auto;html=1;" edge="1" parent="WIyWlLk6GJQsqaUBKTNV-1" source="aVI8cT9DaWJwzPJOxZiF-8" target="aVI8cT9DaWJwzPJOxZiF-10">
          <mxGeometry relative="1" as="geometry" />
        </mxCell>
        <mxCell id="aVI8cT9DaWJwzPJOxZiF-8" value="result=task(line)" style="shape=process;whiteSpace=wrap;html=1;backgroundOutline=1;" vertex="1" parent="WIyWlLk6GJQsqaUBKTNV-1">
          <mxGeometry x="395" y="640" width="120" height="60" as="geometry" />
        </mxCell>
        <mxCell id="aVI8cT9DaWJwzPJOxZiF-13" style="edgeStyle=orthogonalEdgeStyle;rounded=0;orthogonalLoop=1;jettySize=auto;html=1;exitX=1;exitY=0.5;exitDx=0;exitDy=0;entryX=0.5;entryY=0;entryDx=0;entryDy=0;" edge="1" parent="WIyWlLk6GJQsqaUBKTNV-1" source="aVI8cT9DaWJwzPJOxZiF-10" target="aVI8cT9DaWJwzPJOxZiF-12">
          <mxGeometry relative="1" as="geometry" />
        </mxCell>
        <mxCell id="aVI8cT9DaWJwzPJOxZiF-21" style="edgeStyle=orthogonalEdgeStyle;rounded=0;orthogonalLoop=1;jettySize=auto;html=1;exitX=0;exitY=0.5;exitDx=0;exitDy=0;entryX=0.5;entryY=0;entryDx=0;entryDy=0;" edge="1" parent="WIyWlLk6GJQsqaUBKTNV-1" source="aVI8cT9DaWJwzPJOxZiF-10" target="aVI8cT9DaWJwzPJOxZiF-14">
          <mxGeometry relative="1" as="geometry">
            <Array as="points">
              <mxPoint x="390" y="770" />
              <mxPoint x="390" y="920" />
              <mxPoint x="455" y="920" />
            </Array>
          </mxGeometry>
        </mxCell>
        <mxCell id="aVI8cT9DaWJwzPJOxZiF-10" value="result" style="rhombus;whiteSpace=wrap;html=1;" vertex="1" parent="WIyWlLk6GJQsqaUBKTNV-1">
          <mxGeometry x="415" y="730" width="80" height="80" as="geometry" />
        </mxCell>
        <mxCell id="aVI8cT9DaWJwzPJOxZiF-18" style="edgeStyle=orthogonalEdgeStyle;rounded=0;orthogonalLoop=1;jettySize=auto;html=1;exitX=0.5;exitY=1;exitDx=0;exitDy=0;entryX=0.5;entryY=0;entryDx=0;entryDy=0;" edge="1" parent="WIyWlLk6GJQsqaUBKTNV-1" source="aVI8cT9DaWJwzPJOxZiF-12" target="aVI8cT9DaWJwzPJOxZiF-14">
          <mxGeometry relative="1" as="geometry" />
        </mxCell>
        <mxCell id="aVI8cT9DaWJwzPJOxZiF-12" value="result" style="shape=parallelogram;perimeter=parallelogramPerimeter;whiteSpace=wrap;html=1;fixedSize=1;" vertex="1" parent="WIyWlLk6GJQsqaUBKTNV-1">
          <mxGeometry x="395" y="850" width="120" height="60" as="geometry" />
        </mxCell>
        <mxCell id="aVI8cT9DaWJwzPJOxZiF-19" style="edgeStyle=orthogonalEdgeStyle;rounded=0;orthogonalLoop=1;jettySize=auto;html=1;exitX=0.5;exitY=1;exitDx=0;exitDy=0;entryX=0.5;entryY=0;entryDx=0;entryDy=0;" edge="1" parent="WIyWlLk6GJQsqaUBKTNV-1" source="aVI8cT9DaWJwzPJOxZiF-14" target="aVI8cT9DaWJwzPJOxZiF-15">
          <mxGeometry relative="1" as="geometry" />
        </mxCell>
        <mxCell id="aVI8cT9DaWJwzPJOxZiF-14" value="end=clock()" style="shape=process;whiteSpace=wrap;html=1;backgroundOutline=1;" vertex="1" parent="WIyWlLk6GJQsqaUBKTNV-1">
          <mxGeometry x="395" y="940" width="120" height="60" as="geometry" />
        </mxCell>
        <mxCell id="aVI8cT9DaWJwzPJOxZiF-23" value="" style="edgeStyle=orthogonalEdgeStyle;rounded=0;orthogonalLoop=1;jettySize=auto;html=1;" edge="1" parent="WIyWlLk6GJQsqaUBKTNV-1" source="aVI8cT9DaWJwzPJOxZiF-15" target="aVI8cT9DaWJwzPJOxZiF-22">
          <mxGeometry relative="1" as="geometry" />
        </mxCell>
        <mxCell id="aVI8cT9DaWJwzPJOxZiF-15" value="seconds=end-start" style="rounded=0;whiteSpace=wrap;html=1;" vertex="1" parent="WIyWlLk6GJQsqaUBKTNV-1">
          <mxGeometry x="395" y="1020" width="120" height="60" as="geometry" />
        </mxCell>
        <mxCell id="aVI8cT9DaWJwzPJOxZiF-24" style="edgeStyle=orthogonalEdgeStyle;rounded=0;orthogonalLoop=1;jettySize=auto;html=1;exitX=0.5;exitY=1;exitDx=0;exitDy=0;entryX=0.5;entryY=0;entryDx=0;entryDy=0;" edge="1" parent="WIyWlLk6GJQsqaUBKTNV-1" source="aVI8cT9DaWJwzPJOxZiF-22" target="aVI8cT9DaWJwzPJOxZiF-4">
          <mxGeometry relative="1" as="geometry">
            <Array as="points">
              <mxPoint x="455" y="1189" />
              <mxPoint x="600" y="1189" />
              <mxPoint x="600" y="410" />
              <mxPoint x="455" y="410" />
            </Array>
          </mxGeometry>
        </mxCell>
        <mxCell id="aVI8cT9DaWJwzPJOxZiF-22" value="seconds" style="shape=parallelogram;perimeter=parallelogramPerimeter;whiteSpace=wrap;html=1;fixedSize=1;" vertex="1" parent="WIyWlLk6GJQsqaUBKTNV-1">
          <mxGeometry x="395" y="1109" width="120" height="60" as="geometry" />
        </mxCell>
        <mxCell id="aVI8cT9DaWJwzPJOxZiF-26" value="конец" style="ellipse;whiteSpace=wrap;html=1;" vertex="1" parent="WIyWlLk6GJQsqaUBKTNV-1">
          <mxGeometry x="280" y="562" width="68" height="45.33" as="geometry" />
        </mxCell>
      </root>
    </mxGraphModel>
  </diagram>
  <diagram id="34AKhm5SmUMWS0qvNBqZ" name="append">
    <mxGraphModel dx="1423" dy="1694" grid="1" gridSize="10" guides="1" tooltips="1" connect="1" arrows="1" fold="1" page="1" pageScale="1" pageWidth="850" pageHeight="1100" math="0" shadow="0">
      <root>
        <mxCell id="0" />
        <mxCell id="1" parent="0" />
      </root>
    </mxGraphModel>
  </diagram>
</mxfile>
